<svg width="1446" height="332" xmlns="http://www.w3.org/2000/svg" xmlns:xlink="http://www.w3.org/1999/xlink" xml:space="preserve" overflow="hidden"><g transform="translate(-1127 -1319)"><path d="M2092.02 1471.14C2091.93 1475.36 2211.1 1511.7 2208.14 1529.07 2205.18 1546.43 2131.11 1561.05 2074.25 1575.36 2017.39 1589.67 1931.56 1606.24 1866.96 1614.93 1802.36 1623.61 1742.65 1651.47 1686.66 1627.47 1891.87 1484.34 1704.44 1481.14 1535.61 1443.47 1366.78 1405.81 1146.87 1447.39 1141.1 1428.98 1135.34 1410.56 1369.82 1333.4 1501.03 1333 1632.24 1332.6 1805.65 1419.92 1928.36 1426.56 2051.07 1433.2 2132.43 1381.09 2237.3 1372.82 2342.17 1364.56 2579.57 1407.98 2557.57 1376.99" stroke="#042433" stroke-width="27.5" stroke-miterlimit="8" fill="none" fill-rule="evenodd"></path></g></svg>